<?xml version="1.0" standalone="no"?>
<!DOCTYPE svg PUBLIC "-//W3C//DTD SVG 20010904//EN"
 "http://www.w3.org/TR/2001/REC-SVG-20010904/DTD/svg10.dtd">
<svg version="1.0" xmlns="http://www.w3.org/2000/svg"
 width="512.000000pt" height="512.000000pt" viewBox="0 0 512.000000 512.000000"
 preserveAspectRatio="xMidYMid meet">

<g transform="translate(0.000000,512.000000) scale(0.100000,-0.100000)"
fill="#000000" stroke="none">
<path d="M2410 4610 c-397 -29 -776 -174 -1102 -421 -106 -81 -296 -271 -377
-377 -213 -282 -354 -617 -405 -963 -21 -141 -21 -437 0 -578 51 -346 192
-681 405 -963 81 -106 271 -296 377 -377 284 -215 611 -353 962 -407 143 -21
420 -21 573 0 347 49 682 190 969 407 106 81 296 271 377 377 213 282 354 617
405 963 21 141 21 437 0 578 -51 346 -192 681 -405 963 -81 106 -271 296 -377
377 -223 169 -492 299 -757 366 -186 47 -447 70 -645 55z m-621 -936 c97 -29
171 -127 171 -225 -1 -69 -61 -159 -133 -196 -49 -25 -158 -29 -213 -8 -185
71 -213 304 -48 401 78 46 139 53 223 28z m1586 -649 c101 -31 197 -112 236
-199 45 -102 49 -161 49 -652 l0 -464 -250 0 -250 0 0 388 c0 314 -3 398 -15
438 -23 79 -74 115 -160 115 -64 0 -103 -18 -143 -67 -52 -62 -55 -88 -59
-496 l-4 -378 -250 0 -249 0 0 655 0 655 235 0 235 0 0 -103 0 -102 73 70 c81
79 166 128 247 144 30 6 64 13 75 15 35 8 179 -4 230 -19z m-1415 -660 l0
-655 -250 0 -250 0 0 655 0 655 250 0 250 0 0 -655z"/>
</g>
</svg>
